<svg xmlns="http://www.w3.org/2000/svg" viewBox="0 0 364.06 422"><defs><style>.cls-1{fill:#c4dfe6;}</style></defs><title>Logo</title><g id="Capa_2" data-name="Capa 2"><g id="Capa_1-2" data-name="Capa 1"><ellipse class="cls-1" cx="182.03" cy="185.54" rx="25.15" ry="25.18" transform="translate(-77.88 183.06) rotate(-45)"/><path class="cls-1" d="M182.91,87.21A98.08,98.08,0,0,0,86.49,167.4h44.29a54.74,54.74,0,0,1,103.08,0h45.46A98.08,98.08,0,0,0,182.91,87.21Z"/><path class="cls-1" d="M182.32,240.56a54.73,54.73,0,0,1-51.1-35.12H87a98.06,98.06,0,0,0,191.91,0H233.42A54.73,54.73,0,0,1,182.32,240.56Z"/><path class="cls-1" d="M182,0A182,182,0,0,0,0,182C0,321.91,182,422,182,422s182-96,182-240A182,182,0,0,0,182,0Zm17.08,300.16a115.64,115.64,0,1,1,96.95-97A115.7,115.7,0,0,1,199.11,300.16Z"/></g></g></svg>